:FULLY-SPECIFIED
:FORCE-ALL-JOINTS-BE-3DOF
:DEGREES
645
root 5.47894 16.4209 -1.68332 13.3953 3.88406 0.2115
lfemur -15.1583 29.8225 -29.8124
ltibia 34.8156 -0 0
lfoot -38.3079 22.9397 0.185313
ltoes 24.5191 -0 0
rfemur -60.7549 -28.4306 36.614
rtibia 74.7116 -0 0
rfoot -3.61827 6.97966 2.19008
rtoes 5.76535 -0 0
lowerback 0.137681 -4.97392 -6.01271
upperback -1.72387 -6.73442 -0.49807
thorax -1.22918 -3.29831 2.9098
lowerneck -10.4207 -6.08349 0.349422
upperneck 7.28865 -8.75402 4.78613
head 4.20818 -4.01965 0.87587
lclavicle 1.05009e-13 -7.70889e-15 -2.42839e-30
lhumerus -26.1975 -69.6663 109.89
lradius 70.6285 -0 0
lwrist 23.4973 0 0
lhand -4.48904 2.86885 -0.0707646
lfingers 7.12502 -0 0
lthumb 21.2888 31.7869 -0.0593902
rclavicle 1.05009e-13 -7.70889e-15 -2.42839e-30
rhumerus -26.9461 -8.38882 -71.6748
rradius 70.5009 -0 0
rwrist -32.8479 0 0
rhand -29.9956 -44.0585 -0.120432
rfingers 7.12502 -0 0
rthumb -3.31322 -74.0177 -0.116214
646
root 5.48063 16.3979 -1.64337 13.7498 3.07361 0.35701
lfemur -15.0675 29.5821 -29.9812
ltibia 34.8104 -0 0
lfoot -38.3781 22.5186 0.177979
ltoes 24.0621 -0 0
rfemur -61.0544 -28.7481 36.9685
rtibia 74.527 -0 0
rfoot -4.24668 5.69969 2.11091
rtoes 6.11028 -0 0
lowerback 0.0771405 -4.98329 -6.075
upperback -1.73573 -6.7434 -0.543183
thorax -1.2054 -3.30239 2.89183
lowerneck -10.4122 -6.07346 0.292811
upperneck 6.87752 -8.72022 4.90065
head 4.0955 -4.01085 0.935503
lclavicle 1.03527e-13 -8.924e-15 -2.52071e-30
lhumerus -27.2015 -70.2399 111.071
lradius 71.0218 -0 0
lwrist 23.6587 0 0
lhand -4.34427 2.98109 -0.0715765
lfingers 7.12502 -0 0
lthumb 21.4279 31.8829 -0.0600332
rclavicle 1.03527e-13 -8.924e-15 -2.52071e-30
rhumerus -28.8065 -8.64513 -71.6675
rradius 69.1156 -0 0
rwrist -31.5795 0 0
rhand -29.9707 -44.7375 -0.119169
rfingers 7.12502 -0 0
rthumb -3.28918 -74.6969 -0.114999
647
root 5.48265 16.3743 -1.61212 14.1019 2.34747 0.504024
lfemur -14.9732 29.3044 -30.1418
ltibia 34.8156 -0 0
lfoot -38.4439 22.0757 0.169144
ltoes 23.5776 -0 0
rfemur -61.3494 -29.056 37.3067
rtibia 74.3092 -0 0
rfoot -4.87167 4.39339 2.01351
rtoes 6.42425 -0 0
lowerback 0.0221158 -4.98842 -6.13485
upperback -1.74383 -6.74659 -0.585271
thorax -1.18123 -3.30368 2.8756
lowerneck -10.3987 -6.07085 0.231027
upperneck 6.46122 -8.69447 5.01784
head 3.98115 -4.0066 0.99651
lclavicle 1.01918e-13 -1.01649e-14 -2.57949e-30
lhumerus -28.2953 -70.7627 112.319
lradius 71.4075 -0 0
lwrist 23.8221 0 0
lhand -4.21341 3.08835 -0.0715117
lfingers 7.12502 -0 0
lthumb 21.5536 31.9747 -0.0599437
rclavicle 1.01918e-13 -1.01649e-14 -2.57949e-30
rhumerus -30.6478 -8.88587 -71.6658
rradius 67.7663 -0 0
rwrist -30.2988 0 0
rhand -29.9414 -45.4076 -0.116649
rfingers 7.12502 -0 0
rthumb -3.26095 -75.3671 -0.112571
648
root 5.48497 16.3499 -1.5902 14.4516 1.71018 0.653477
lfemur -14.8755 28.9882 -30.2937
ltibia 34.8319 -0 0
lfoot -38.5052 21.6109 0.158795
ltoes 23.0649 -0 0
rfemur -61.6389 -29.3538 37.6271
rtibia 74.057 -0 0
rfoot -5.49179 3.06164 1.89753
rtoes 6.70556 -0 0
lowerback -0.0270943 -4.9891 -6.19208
upperback -1.74799 -6.74373 -0.62415
thorax -1.1567 -3.30205 2.86119
lowerneck -10.38 -6.07595 0.163934
upperneck 6.04007 -8.67715 5.13776
head 3.86521 -4.00709 1.05888
lclavicle 1.00178e-13 -1.14309e-14 -2.59931e-30
lhumerus -29.4756 -71.2312 113.629
lradius 71.785 -0 0
lwrist 23.9872 0 0
lhand -4.0972 3.19025 -0.0704643
lfingers 7.12502 -0 0
lthumb 21.6651 32.0619 -0.0590338
rclavicle 1.00178e-13 -1.14309e-14 -2.59931e-30
rhumerus -32.4662 -9.11051 -71.6713
rradius 66.4563 -0 0
rwrist -29.0072 0 0
rhand -29.9078 -46.0672 -0.112767
rfingers 7.12502 -0 0
rthumb -3.22842 -76.0269 -0.108827
